{"accessors":[{"bufferView":0,"byteOffset":0,"componentType":5126,"count":60,"max":[2.5,1,2.5],"min":[-2.5,-1,0.941957],"normalized":false,"type":"VEC3"},{"bufferView":1,"byteOffset":0,"componentType":5126,"count":60,"max":[0.000061,0,0.000015,1],"min":[-1,-1,-1,1],"normalized":false,"type":"VEC4"},{"bufferView":2,"byteOffset":0,"componentType":5126,"count":60,"max":[1,1,-0.000015],"min":[-1,-1,-1],"normalized":false,"type":"VEC3"},{"bufferView":3,"byteOffset":0,"componentType":5126,"count":60,"max":[1,1],"min":[0,0],"normalized":false,"type":"VEC2"},{"bufferView":4,"byteOffset":0,"componentType":5125,"count":60,"max":[59],"min":[0],"normalized":false,"type":"SCALAR"},{"bufferView":5,"byteOffset":0,"componentType":5126,"count":102,"max":[2,1,4],"min":[-2,-1,-4],"normalized":false,"type":"VEC3"},{"bufferView":6,"byteOffset":0,"componentType":5126,"count":102,"max":[0,0,0.000076,1],"min":[-1,-1,-1,-1],"normalized":false,"type":"VEC4"},{"bufferView":7,"byteOffset":0,"componentType":5126,"count":102,"max":[1,1,1],"min":[-1,-1,-1],"normalized":false,"type":"VEC3"},{"bufferView":8,"byteOffset":0,"componentType":5126,"count":102,"max":[1,1],"min":[0,0],"normalized":false,"type":"VEC2"},{"bufferView":9,"byteOffset":0,"componentType":5125,"count":102,"max":[101],"min":[0],"normalized":false,"type":"SCALAR"},{"bufferView":10,"byteOffset":0,"componentType":5126,"count":2217,"max":[18.464561,2,15.284429],"min":[-11.576606,-2,-15.748671],"normalized":false,"type":"VEC3"},{"bufferView":11,"byteOffset":0,"componentType":5126,"count":2217,"max":[1,0.017117,0.022605,1],"min":[-1,-1,-1,-1],"normalized":false,"type":"VEC4"},{"bufferView":12,"byteOffset":0,"componentType":5126,"count":2217,"max":[1,1,1],"min":[-1,-1,-1],"normalized":false,"type":"VEC3"},{"bufferView":13,"byteOffset":0,"componentType":5126,"count":2217,"max":[1,1],"min":[0,0],"normalized":false,"type":"VEC2"},{"bufferView":14,"byteOffset":0,"componentType":5125,"count":2217,"max":[2216],"min":[0],"normalized":false,"type":"SCALAR"}],"asset":{"generator":"Godot Engine v4.2.2.stable.official@15073afe3856abd2aa1622492fe50026c7d63dc1","version":"2.0"},"bufferViews":[{"buffer":0,"byteLength":720,"byteOffset":0},{"buffer":0,"byteLength":960,"byteOffset":720},{"buffer":0,"byteLength":720,"byteOffset":1680},{"buffer":0,"byteLength":480,"byteOffset":2400},{"buffer":0,"byteLength":240,"byteOffset":2880},{"buffer":0,"byteLength":1224,"byteOffset":3120},{"buffer":0,"byteLength":1632,"byteOffset":4344},{"buffer":0,"byteLength":1224,"byteOffset":5976},{"buffer":0,"byteLength":816,"byteOffset":7200},{"buffer":0,"byteLength":408,"byteOffset":8016},{"buffer":0,"byteLength":26604,"byteOffset":8424},{"buffer":0,"byteLength":35472,"byteOffset":35028},{"buffer":0,"byteLength":26604,"byteOffset":70500},{"buffer":0,"byteLength":17736,"byteOffset":97104},{"buffer":0,"byteLength":8868,"byteOffset":114840}],"buffers":[{"byteLength":123708,"uri":"main_level0.bin"}],"extensions":{"KHR_lights_punctual":{"lights":[{"color":[1,1,1],"intensity":1,"range":340282346638528860000000000000000000000,"type":"directional"}]}},"extensionsUsed":["GODOT_single_root","KHR_lights_punctual"],"images":[{"uri":"textures%2F_albedo000.png"}],"materials":[{"extensions":{},"pbrMetallicRoughness":{"baseColorFactor":[0.99999988079071,0.99999988079071,0.99999988079071,1],"baseColorTexture":{"index":0},"metallicFactor":0,"roughnessFactor":1}},{"extensions":{},"pbrMetallicRoughness":{"baseColorFactor":[0.99999988079071,0.99999988079071,0.99999988079071,1],"metallicFactor":0,"roughnessFactor":1}}],"meshes":[{"extras":{"targetNames":[]},"primitives":[{"attributes":{"NORMAL":2,"POSITION":0,"TANGENT":1,"TEXCOORD_0":3},"indices":4,"material":0,"mode":4}]},{"extras":{"targetNames":[]},"primitives":[{"attributes":{"NORMAL":7,"POSITION":5,"TANGENT":6,"TEXCOORD_0":8},"indices":9,"material":0,"mode":4}]},{"extras":{"targetNames":[]},"primitives":[{"attributes":{"NORMAL":12,"POSITION":10,"TANGENT":11,"TEXCOORD_0":13},"indices":14,"material":1,"mode":4}]}],"nodes":[{"children":[1,2,3,5,7],"extensions":{},"name":"Main_level"},{"extensions":{},"name":"WorldEnvironment"},{"extensions":{"KHR_lights_punctual":{"light":0}},"name":"DirectionalLight3D","rotation":[-0.12941072881222,0.836515307426453,0.482963681221008,0.22414530813694]},{"children":[4],"extensions":{},"mesh":0,"name":"hangover22","translation":[-3.92600011825562,2.96904444694519,-9.88000011444092]},{"extensions":{},"name":"Side_Room3","translation":[0,0,-1.55804252624512]},{"children":[6],"extensions":{},"mesh":1,"name":"hangover3","translation":[1.99699997901917,2.95464658737183,11.2840003967285]},{"extensions":{},"name":"Room8","translation":[-1.43482995033264,0,-1.30424022674561]},{"children":[8],"extensions":{},"mesh":2,"name":"Main_Room2","translation":[0,2,0]},{"children":[9,10,11,12,13,14,15,16,17,18,19,20,21,22,23],"extensions":{},"name":"CSGCombiner3D"},{"extensions":{},"name":"Corridor3","translation":[0,-1,5.56101894378662]},{"extensions":{},"name":"Corridor5","translation":[3.30473232269287,1,6.15718650817871]},{"extensions":{},"name":"Main_Corridor","rotation":[0,-0.70710676908493,0,0.70710676908493],"translation":[-5.74976539611816,-1,-0.16119289398193]},{"extensions":{},"name":"Main_Corridor1","rotation":[0,-0.70710676908493,0,0.70710676908493],"translation":[7.85265731811523,-1,0.0999939441680908]},{"extensions":{},"name":"Main_Corridor3","rotation":[0,-0.70710676908493,0,0.70710676908493],"translation":[9.10123634338379,0,-10.8129997253418]},{"extensions":{},"name":"Main_Corridor4","rotation":[0,-0.70710676908493,0,0.70710676908493],"translation":[9.10123634338379,0,-6.61667490005493]},{"extensions":{},"name":"Main_Corridor2","rotation":[0,-0.70710676908493,0,0.70710676908493],"translation":[14.4732227325439,-1,-5.86653327941895]},{"extensions":{},"name":"Corridor","translation":[-3.92600011825562,1,-6.72499990463257]},{"extensions":{},"name":"Corridor2","translation":[-9.73686027526855,-1,-6.01249361038208]},{"extensions":{},"name":"Corridor4","translation":[-7.74050140380859,-1,-9.50612163543701]},{"extensions":{},"name":"Side_Room","translation":[-3.92603158950806,0,-9.88011932373047]},{"extensions":{},"name":"Room4","translation":[0,0,11.2844285964966]},{"extensions":{},"name":"Room5","translation":[14.5519523620605,0,0.00287342071533203]},{"extensions":{},"name":"Room6","translation":[14.4645614624023,0,-11.7486705780029]},{"extensions":{},"name":"Spawn_Room","translation":[-9.57660579681396,0,-0.07746696472168]}],"samplers":[{"magFilter":9729,"minFilter":9987,"wrapS":10497,"wrapT":10497}],"scene":0,"scenes":[{"nodes":[0]}],"textures":[{"sampler":0,"source":0}]}